Coordinates
version=1
nRows=32
nColumns=22
inDegrees=yes

Units are S.I. units (second, meters, Newtons, ...)
If the header above contains a line with 'inDegrees', this indicates whether rotational values are in degrees (yes) or radians (no).

endheader
time	pelvis_tilt	pelvis_list	pelvis_rotation	pelvis_tx	pelvis_ty	pelvis_tz	hip_flexion_r	hip_adduction_r	hip_rotation_r	knee_angle_r	ankle_angle_r	subtalar_angle_r	hip_flexion_l	hip_adduction_l	hip_rotation_l	knee_angle_l	ankle_angle_l	subtalar_angle_l	lumbar_extension	lumbar_bending	lumbar_rotation
      2.71000000	      0.12159265	      2.29790900	    -40.87818943	     -0.20162130	      0.90657654	     -0.30110126	    -12.95854540	      4.61712337	      9.06454160	    -24.13346491	      6.73866868	     -3.56599281	     27.66519667	      3.70561213	     11.53379439	    -28.50097802	      2.80917987	      4.45143807	     -2.22945454	     -5.94354264	      4.17644071
      2.72000000	      0.51636818	      2.55702803	    -41.43897985	     -0.19367803	      0.90827483	     -0.29399902	    -12.57898049	      4.00593479	      8.54975784	    -25.84466223	      4.64589530	     -2.79837592	     26.78684300	      3.99293764	     11.03858124	    -28.56710846	      3.32249629	      4.13101950	     -2.16602128	     -6.52765092	      4.27189222
      2.73000000	      0.87796466	      2.79945128	    -42.04645969	     -0.18605726	      0.90993891	     -0.28700613	    -11.99043483	      3.38183921	      7.93010451	    -27.77191534	      2.40644272	     -2.00504537	     25.84606349	      4.20863409	     10.41681266	    -28.44885287	      3.90728244	      3.70584781	     -2.13549543	     -7.05639207	      4.34517807
      2.74000000	      1.20769377	      3.02461938	    -42.70557047	     -0.17881041	      0.91153391	     -0.28018134	    -11.17703674	      2.73343163	      7.21820675	    -29.93446684	      0.07076424	     -1.23417251	     24.86458480	      4.36771387	      9.70758657	    -28.17610578	      4.46605626	      3.21624916	     -2.14801486	     -7.53150230	      4.42730966
      2.75000000	      1.50858626	      3.23773936	    -43.40768298	     -0.17191708	      0.91300378	     -0.27355780	    -10.14194926	      2.04218913	      6.40930154	    -32.32148296	     -2.27180792	     -0.48546968	     23.87681920	      4.48729900	      8.91695054	    -27.80506399	      5.01004956	      2.71215603	     -2.20332309	     -7.95554475	      4.48807561
      2.76000000	      1.78949352	      3.44188765	    -44.14546010	     -0.16536850	      0.91430325	     -0.26715655	     -8.89575082	      1.29200064	      5.51907263	    -34.92161221	     -4.52870453	      0.28267983	     22.91230630	      4.59060542	      8.07627669	    -27.39801233	      5.54000030	      2.21524744	     -2.30483472	     -8.33932183	      4.51659732
      2.77000000	      2.05548742	      3.64181002	    -44.90811666	     -0.15912416	      0.91540236	     -0.26099661	     -7.45141134	      0.46917716	      4.56420352	    -37.71198825	     -6.60230720	      1.11642299	     21.99779506	      4.69712728	      7.21357690	    -27.00390885	      6.05473513	      1.74540723	     -2.45223110	     -8.68971465	      4.50354152
      2.78000000	      2.31469019	      3.84252725	    -45.68672785	     -0.15314656	      0.91628603	     -0.25506785	     -5.83236054	     -0.43455699	      3.57421043	    -40.65376584	     -8.40350863	      2.06121820	     21.15217006	      4.82367097	      6.35138741	    -26.66500409	      6.55708319	      1.31412189	     -2.64102241	     -9.01962455	      4.43818835
      2.79000000	      2.57413527	      4.04373867	    -46.47185791	     -0.14739078	      0.91696120	     -0.24935066	     -4.07063958	     -1.41412941	      2.59104709	    -43.69802321	     -9.85365688	      3.13146136	     20.37896590	      4.97983357	      5.51118811	    -26.40115232	      7.04667950	      0.92352793	     -2.87038206	     -9.33696223	      4.31485328
      2.80000000	      2.83287892	      4.23828765	    -47.25358686	     -0.14180816	      0.91746549	     -0.24379454	     -2.20356438	     -2.44332241	      1.65622740	    -46.77858919	    -10.90274406	      4.29736387	     19.66296729	      5.16345772	      4.72669603	    -26.20384999	      7.54931591	      0.55513445	     -3.13325648	     -9.63995309	      4.14222708
      2.81000000	      3.12585845	      4.42924748	    -48.01894979	     -0.13633820	      0.91786707	     -0.23836786	     -0.28814121	     -3.53230769	      0.78491739	    -49.82836376	    -11.46083236	      5.33894561	     18.98159045	      5.40036604	      3.95605283	    -26.07607725	      7.97964784	      0.24577471	     -3.44727406	     -9.96153016	      3.87631614
      2.82000000	      3.41066429	      4.59308124	    -48.75884183	     -0.13096885	      0.91819450	     -0.23299354	      1.65837945	     -4.59173167	      0.02198854	    -52.77683953	    -11.55960672	      6.24272652	     18.31077615	      5.64832658	      3.29075423	    -25.96908635	      8.47929827	     -0.09701075	     -3.78409582	    -10.25694926	      3.55525592
      2.83000000	      3.71045893	      4.72426138	    -49.46676440	     -0.12565896	      0.91852200	     -0.22764258	      3.58842837	     -5.62606211	     -0.65634348	    -55.56810356	    -11.16199903	      6.81089746	     17.62275471	      5.91877869	      2.69831345	    -25.87579446	      8.95778223	     -0.45440725	     -4.15971175	    -10.54385003	      3.19896033
      2.84000000	      4.03489689	      4.80748177	    -50.14158333	     -0.12037817	      0.91891950	     -0.22226105	      5.45398046	     -6.61137637	     -1.24290219	    -58.14506906	    -10.29798943	      6.99470352	     16.87962992	      6.20203396	      2.14889865	    -25.77012993	      9.39177837	     -0.78458140	     -4.58388668	    -10.81610844	      2.77239762
      2.85000000	      4.35558410	      4.83542394	    -50.78683766	     -0.11515860	      0.91942056	     -0.21677784	      7.24830655	     -7.48155915	     -1.70928273	    -60.46200752	     -9.05375608	      6.90989362	     16.06563044	      6.46534996	      1.65870843	    -25.60572134	      9.80908066	     -1.08622126	     -5.03074439	    -11.05265127	      2.28191107
      2.86000000	      4.64226702	      4.80172819	    -51.39373993	     -0.11005400	      0.91999876	     -0.21123754	      8.98774228	     -8.20353504	     -2.10006705	    -62.50965440	     -7.60450566	      6.50497351	     15.22711649	      6.67963388	      1.23384998	    -25.44174405	     10.24091554	     -1.49008447	     -5.49518051	    -11.23170859	      1.80599957
      2.87000000	      4.89797056	      4.68726429	    -51.97729061	     -0.10503977	      0.92076040	     -0.20552100	     10.61176202	     -8.73010916	     -2.37850546	    -64.22372953	     -6.02837464	      6.03761442	     14.28243242	      6.82070524	      0.84745307	    -25.17430684	     10.61999481	     -1.78743410	     -5.97353863	    -11.33494501	      1.28040230
      2.88000000	      5.11565175	      4.48017215	    -52.51142780	     -0.10018544	      0.92165588	     -0.19975757	     12.12681783	     -9.06044426	     -2.61604273	    -65.62848889	     -4.51854503	      5.31349613	     13.29746956	      6.87880908	      0.50436893	    -24.92949976	     11.04084266	     -2.13276834	     -6.50420315	    -11.35816246	      0.76402682
      2.89000000	      5.26887199	      4.19365398	    -53.01757858	     -0.09546812	      0.92270808	     -0.19385015	     13.53055280	     -9.15272157	     -2.77097824	    -66.68106972	     -3.10304494	      4.67910852	     12.24268301	      6.83116151	      0.19659374	    -24.61179270	     11.42880779	     -2.37199352	     -7.03086348	    -11.28031552	      0.22966808
      2.90000000	      5.36126452	      3.84520337	    -53.50596988	     -0.09095125	      0.92387646	     -0.18782472	     14.84197906	     -9.01891705	     -2.84424355	    -67.39698381	     -1.83286429	      4.18295387	     11.14717672	      6.68142302	     -0.12266152	    -24.24402133	     11.74426854	     -2.52976114	     -7.55015664	    -11.12627512	     -0.28717697
      2.91000000	      5.38509299	      3.44526799	    -53.94966902	     -0.08661534	      0.92510642	     -0.18174848	     16.06526744	     -8.68016885	     -2.88754160	    -67.78387449	     -0.73933510	      3.75547964	     10.03624088	      6.43964800	     -0.40159731	    -23.85018216	     12.09762256	     -2.63901169	     -8.06219277	    -10.89266504	     -0.82107636
      2.92000000	      5.34485167	      3.04284310	    -54.37853863	     -0.08249358	      0.92630128	     -0.17564066	     17.25464092	     -8.17297391	     -2.86238798	    -67.86742771	      0.22349259	      3.58825345	      8.96181188	      6.12792951	     -0.72046536	    -23.44463673	     12.41961661	     -2.67242315	     -8.52484056	    -10.61511630	     -1.35418513
      2.93000000	      5.25670813	      2.62623614	    -54.79557653	     -0.07854360	      0.92749945	     -0.16948081	     18.37414313	     -7.53008156	     -2.79820034	    -67.64071184	      1.04115724	      3.52132225	      7.86432489	      5.76534430	     -1.01543786	    -22.96159127	     12.69751758	     -2.68150798	     -8.95692501	    -10.29764310	     -1.86101719
      2.94000000	      5.12429147	      2.24170586	    -55.19811061	     -0.07476965	      0.92857160	     -0.16331036	     19.47038009	     -6.80465221	     -2.70149948	    -67.13706160	      1.76545282	      3.64495852	      6.82533669	      5.37480790	     -1.35600155	    -22.47783745	     12.96014252	     -2.65495403	     -9.32638467	     -9.97578767	     -2.37765354
      2.95000000	      4.95169311	      1.91939022	    -55.58144464	     -0.07111009	      0.92944531	     -0.15715298	     20.56589161	     -6.05713236	     -2.60291597	    -66.37669264	      2.45104087	      3.87470928	      5.87319156	      4.98279651	     -1.74377621	    -22.00253682	     13.21703980	     -2.61862878	     -9.60765732	     -9.66263464	     -2.91022021
      2.96000000	      4.77184314	      1.60265983	    -55.95422859	     -0.06754689	      0.93025087	     -0.15097026	     21.57727463	     -5.29426634	     -2.50110929	    -65.35043549	      2.98437736	      4.27486756	      4.89902732	      4.59652485	     -2.09681246	    -21.47145999	     13.42904038	     -2.55844772	     -9.87837654	     -9.35115773	     -3.44015174
      2.97000000	      4.56977581	      1.37292268	    -56.30430923	     -0.06399561	      0.93078715	     -0.14482060	     22.59886265	     -4.60464913	     -2.44447216	    -64.10757206	      3.51424479	      4.66816329	      4.03405539	      4.24827760	     -2.47777236	    -20.97345647	     13.64382559	     -2.51117077	    -10.04812371	     -9.06502082	     -3.99784036
      2.98000000	      4.36553447	      1.19952927	    -56.63180185	     -0.06042760	      0.93112361	     -0.13865962	     23.58085996	     -4.00664697	     -2.45577357	    -62.64908829	      3.99186906	      5.05267969	      3.22274539	      3.94214434	     -2.84502759	    -20.48368874	     13.84872452	     -2.47493062	    -10.15781392	     -8.80490966	     -4.56647000
      2.99000000	      4.15967987	      1.09690454	    -56.93743615	     -0.05685634	      0.93120346	     -0.13251213	     24.54489393	     -3.51775209	     -2.53697271	    -61.00110402	      4.46862343	      5.29166745	      2.51440761	      3.68230598	     -3.21671479	    -20.06722422	     14.08313592	     -2.46704892	    -10.20002626	     -8.57795911	     -5.16725851
      3.00000000	      3.96672713	      1.01937654	    -57.23022291	     -0.05325039	      0.93113437	     -0.12632800	     25.42779471	     -3.13249900	     -2.69901391	    -59.15214954	      4.86016847	      5.50478822	      1.82883655	      3.46198307	     -3.54672438	    -19.67366923	     14.32474290	     -2.47579750	    -10.22141551	     -8.36563380	     -5.77965342
      3.01000000	      3.78471745	      0.97944501	    -57.50743626	     -0.04962286	      0.93088721	     -0.12010949	     26.24283255	     -2.85644870	     -2.94898859	    -57.11375979	      5.20193509	      5.64115901	      1.19381163	      3.28283839	     -3.84954230	    -19.32881577	     14.58416667	     -2.50804070	    -10.21104930	     -8.17650872	     -6.40199161
      3.02000000	      3.60750272	      0.96107294	    -57.76844482	     -0.04598133	      0.93048754	     -0.11384289	     26.96870527	     -2.66702290	     -3.28508568	    -54.87880085	      5.48856644	      5.69694024	      0.59988763	      3.12619509	     -4.12766147	    -19.03663457	     14.86936803	     -2.56414773	    -10.18344343	     -7.99254506	     -7.02130171
